<mxfile host="app.diagrams.net" agent="Mozilla/5.0 (Windows NT 10.0; Win64; x64) AppleWebKit/537.36 (KHTML, like Gecko) Chrome/137.0.0.0 Safari/537.36" version="27.2.0">
  <diagram name="Page-1" id="oRS2sLopx-7H008j04i3">
    <mxGraphModel dx="1358" dy="715" grid="1" gridSize="10" guides="1" tooltips="1" connect="1" arrows="1" fold="1" page="1" pageScale="1" pageWidth="850" pageHeight="1100" math="0" shadow="0">
      <root>
        <mxCell id="0" />
        <mxCell id="1" parent="0" />
        <mxCell id="KcAohZBK-jJRHmxp2vJb-32" value="" style="rounded=0;whiteSpace=wrap;html=1;fillColor=#d5e8d4;strokeColor=#82b366;" vertex="1" parent="1">
          <mxGeometry x="10" y="280" width="820" height="190" as="geometry" />
        </mxCell>
        <mxCell id="KcAohZBK-jJRHmxp2vJb-30" value="" style="rounded=0;whiteSpace=wrap;html=1;fillColor=#dae8fc;strokeColor=#6c8ebf;" vertex="1" parent="1">
          <mxGeometry x="10" y="30" width="820" height="250" as="geometry" />
        </mxCell>
        <mxCell id="KcAohZBK-jJRHmxp2vJb-3" style="edgeStyle=orthogonalEdgeStyle;rounded=0;orthogonalLoop=1;jettySize=auto;html=1;entryX=0;entryY=0.5;entryDx=0;entryDy=0;" edge="1" parent="1" source="KcAohZBK-jJRHmxp2vJb-1" target="KcAohZBK-jJRHmxp2vJb-2">
          <mxGeometry relative="1" as="geometry" />
        </mxCell>
        <mxCell id="KcAohZBK-jJRHmxp2vJb-1" value="Raw Linux Log Sample" style="rounded=0;whiteSpace=wrap;html=1;fillColor=#f5f5f5;fontColor=#333333;strokeColor=#666666;" vertex="1" parent="1">
          <mxGeometry x="25" y="130" width="120" height="60" as="geometry" />
        </mxCell>
        <mxCell id="KcAohZBK-jJRHmxp2vJb-5" style="edgeStyle=orthogonalEdgeStyle;rounded=0;orthogonalLoop=1;jettySize=auto;html=1;" edge="1" parent="1" target="KcAohZBK-jJRHmxp2vJb-4">
          <mxGeometry relative="1" as="geometry">
            <mxPoint x="255" y="160" as="sourcePoint" />
          </mxGeometry>
        </mxCell>
        <mxCell id="KcAohZBK-jJRHmxp2vJb-2" value="Convert to Data Frame" style="rounded=1;whiteSpace=wrap;html=1;fillColor=#f5f5f5;fontColor=#333333;strokeColor=#666666;" vertex="1" parent="1">
          <mxGeometry x="165" y="130" width="120" height="60" as="geometry" />
        </mxCell>
        <mxCell id="KcAohZBK-jJRHmxp2vJb-8" style="edgeStyle=orthogonalEdgeStyle;rounded=0;orthogonalLoop=1;jettySize=auto;html=1;" edge="1" parent="1" source="KcAohZBK-jJRHmxp2vJb-4" target="KcAohZBK-jJRHmxp2vJb-6">
          <mxGeometry relative="1" as="geometry" />
        </mxCell>
        <mxCell id="KcAohZBK-jJRHmxp2vJb-4" value="Tokenizer (GPT-2) - Set Paddings" style="rounded=1;whiteSpace=wrap;html=1;fillColor=#f5f5f5;fontColor=#333333;strokeColor=#666666;" vertex="1" parent="1">
          <mxGeometry x="315" y="130" width="120" height="60" as="geometry" />
        </mxCell>
        <mxCell id="KcAohZBK-jJRHmxp2vJb-35" style="edgeStyle=orthogonalEdgeStyle;rounded=0;orthogonalLoop=1;jettySize=auto;html=1;entryX=0;entryY=0.5;entryDx=0;entryDy=0;" edge="1" parent="1" source="KcAohZBK-jJRHmxp2vJb-6" target="KcAohZBK-jJRHmxp2vJb-10">
          <mxGeometry relative="1" as="geometry" />
        </mxCell>
        <mxCell id="KcAohZBK-jJRHmxp2vJb-6" value="Tokenization + Group of 512 Blocks" style="rounded=1;whiteSpace=wrap;html=1;fillColor=#f5f5f5;fontColor=#333333;strokeColor=#666666;" vertex="1" parent="1">
          <mxGeometry x="465" y="130" width="120" height="60" as="geometry" />
        </mxCell>
        <mxCell id="KcAohZBK-jJRHmxp2vJb-14" style="edgeStyle=orthogonalEdgeStyle;rounded=0;orthogonalLoop=1;jettySize=auto;html=1;entryX=0.5;entryY=0;entryDx=0;entryDy=0;exitX=1;exitY=0.5;exitDx=0;exitDy=0;" edge="1" parent="1" source="KcAohZBK-jJRHmxp2vJb-10" target="KcAohZBK-jJRHmxp2vJb-11">
          <mxGeometry relative="1" as="geometry" />
        </mxCell>
        <mxCell id="KcAohZBK-jJRHmxp2vJb-10" value="GPT-2 Trainer API - 30 Epochs" style="rounded=1;whiteSpace=wrap;html=1;fillColor=#f5f5f5;fontColor=#333333;strokeColor=#666666;" vertex="1" parent="1">
          <mxGeometry x="610" y="130" width="120" height="60" as="geometry" />
        </mxCell>
        <mxCell id="KcAohZBK-jJRHmxp2vJb-11" value="Save Trained Model" style="rounded=1;whiteSpace=wrap;html=1;fillColor=#f5f5f5;fontColor=#333333;strokeColor=#666666;" vertex="1" parent="1">
          <mxGeometry x="705" y="210" width="120" height="60" as="geometry" />
        </mxCell>
        <mxCell id="KcAohZBK-jJRHmxp2vJb-18" style="edgeStyle=orthogonalEdgeStyle;rounded=0;orthogonalLoop=1;jettySize=auto;html=1;fillColor=#d5e8d4;strokeColor=#82b366;" edge="1" parent="1" source="KcAohZBK-jJRHmxp2vJb-16" target="KcAohZBK-jJRHmxp2vJb-17">
          <mxGeometry relative="1" as="geometry" />
        </mxCell>
        <mxCell id="KcAohZBK-jJRHmxp2vJb-16" value="Load Trained Model" style="rounded=0;whiteSpace=wrap;html=1;fillColor=#f5f5f5;strokeColor=#666666;fontColor=#333333;" vertex="1" parent="1">
          <mxGeometry x="30" y="300" width="120" height="60" as="geometry" />
        </mxCell>
        <mxCell id="KcAohZBK-jJRHmxp2vJb-20" style="edgeStyle=orthogonalEdgeStyle;rounded=0;orthogonalLoop=1;jettySize=auto;html=1;entryX=0;entryY=0.5;entryDx=0;entryDy=0;fillColor=#d5e8d4;strokeColor=#82b366;" edge="1" parent="1" source="KcAohZBK-jJRHmxp2vJb-17" target="KcAohZBK-jJRHmxp2vJb-19">
          <mxGeometry relative="1" as="geometry" />
        </mxCell>
        <mxCell id="KcAohZBK-jJRHmxp2vJb-17" value="Define Prompt Template ( Log Format + Examples )" style="rounded=1;whiteSpace=wrap;html=1;fillColor=#f5f5f5;strokeColor=#666666;fontColor=#333333;" vertex="1" parent="1">
          <mxGeometry x="190" y="300" width="120" height="60" as="geometry" />
        </mxCell>
        <mxCell id="KcAohZBK-jJRHmxp2vJb-22" style="edgeStyle=orthogonalEdgeStyle;rounded=0;orthogonalLoop=1;jettySize=auto;html=1;fillColor=#d5e8d4;strokeColor=#82b366;" edge="1" parent="1" source="KcAohZBK-jJRHmxp2vJb-19" target="KcAohZBK-jJRHmxp2vJb-21">
          <mxGeometry relative="1" as="geometry" />
        </mxCell>
        <mxCell id="KcAohZBK-jJRHmxp2vJb-19" value="Batch Synthetic Data Generation - temp = 1.5, top_p=0.9" style="rounded=1;whiteSpace=wrap;html=1;fillColor=#f5f5f5;strokeColor=#666666;fontColor=#333333;" vertex="1" parent="1">
          <mxGeometry x="350" y="300" width="120" height="60" as="geometry" />
        </mxCell>
        <mxCell id="KcAohZBK-jJRHmxp2vJb-24" style="edgeStyle=orthogonalEdgeStyle;rounded=0;orthogonalLoop=1;jettySize=auto;html=1;entryX=0;entryY=0.5;entryDx=0;entryDy=0;fillColor=#d5e8d4;strokeColor=#82b366;" edge="1" parent="1" source="KcAohZBK-jJRHmxp2vJb-21" target="KcAohZBK-jJRHmxp2vJb-23">
          <mxGeometry relative="1" as="geometry" />
        </mxCell>
        <mxCell id="KcAohZBK-jJRHmxp2vJb-21" value="Parse Generated Text - Extract single log line" style="rounded=1;whiteSpace=wrap;html=1;fillColor=#f5f5f5;strokeColor=#666666;fontColor=#333333;" vertex="1" parent="1">
          <mxGeometry x="510" y="300" width="120" height="60" as="geometry" />
        </mxCell>
        <mxCell id="KcAohZBK-jJRHmxp2vJb-23" value="Export to CSV" style="rounded=1;whiteSpace=wrap;html=1;fillColor=#f5f5f5;strokeColor=#666666;fontColor=#333333;" vertex="1" parent="1">
          <mxGeometry x="670" y="300" width="120" height="60" as="geometry" />
        </mxCell>
        <mxCell id="KcAohZBK-jJRHmxp2vJb-25" value="" style="ellipse;html=1;shape=startState;fillColor=#f5f5f5;strokeColor=#666666;fontColor=#333333;" vertex="1" parent="1">
          <mxGeometry x="75" y="40" width="30" height="30" as="geometry" />
        </mxCell>
        <mxCell id="KcAohZBK-jJRHmxp2vJb-26" value="" style="edgeStyle=orthogonalEdgeStyle;html=1;verticalAlign=bottom;endArrow=open;endSize=8;strokeColor=#666666;rounded=0;fillColor=#f5f5f5;" edge="1" source="KcAohZBK-jJRHmxp2vJb-25" parent="1">
          <mxGeometry relative="1" as="geometry">
            <mxPoint x="90" y="130" as="targetPoint" />
          </mxGeometry>
        </mxCell>
        <mxCell id="KcAohZBK-jJRHmxp2vJb-28" value="" style="edgeStyle=orthogonalEdgeStyle;html=1;verticalAlign=bottom;endArrow=open;endSize=8;strokeColor=#82b366;rounded=0;entryX=0.5;entryY=1;entryDx=0;entryDy=0;fillColor=#d5e8d4;" edge="1" source="KcAohZBK-jJRHmxp2vJb-27" parent="1" target="KcAohZBK-jJRHmxp2vJb-16">
          <mxGeometry relative="1" as="geometry">
            <mxPoint x="75" y="480" as="targetPoint" />
            <mxPoint x="75" y="550" as="sourcePoint" />
          </mxGeometry>
        </mxCell>
        <mxCell id="KcAohZBK-jJRHmxp2vJb-27" value="" style="ellipse;html=1;shape=startState;fillColor=#f5f5f5;strokeColor=#666666;fontColor=#333333;" vertex="1" parent="1">
          <mxGeometry x="75" y="430" width="30" height="30" as="geometry" />
        </mxCell>
        <mxCell id="KcAohZBK-jJRHmxp2vJb-31" value="&lt;h1 style=&quot;margin-top: 0px;&quot;&gt;GPT-2 Training Method&lt;/h1&gt;" style="text;html=1;whiteSpace=wrap;overflow=hidden;rounded=0;fillColor=#f5f5f5;fontColor=#333333;strokeColor=#666666;" vertex="1" parent="1">
          <mxGeometry x="280" y="40" width="270" height="40" as="geometry" />
        </mxCell>
        <mxCell id="KcAohZBK-jJRHmxp2vJb-33" value="&lt;h1 style=&quot;margin-top: 0px;&quot;&gt;Synthetic Data Generation using GPT-2&lt;/h1&gt;" style="text;html=1;whiteSpace=wrap;overflow=hidden;rounded=0;fillColor=#f5f5f5;strokeColor=#666666;fontColor=#333333;" vertex="1" parent="1">
          <mxGeometry x="180" y="410" width="470" height="40" as="geometry" />
        </mxCell>
      </root>
    </mxGraphModel>
  </diagram>
</mxfile>
